<?xml version="1.0" encoding="UTF-8"?>
<!DOCTYPE svg PUBLIC "-//W3C//DTD SVG 1.1//EN" "http://www.w3.org/Graphics/SVG/1.1/DTD/svg11.dtd">
<!-- Creator: CorelDRAW 2020 (64-Bit) -->
<svg xmlns="http://www.w3.org/2000/svg" xml:space="preserve" width="121.428mm" height="99.6618mm" version="1.1" style="shape-rendering:geometricPrecision; text-rendering:geometricPrecision; image-rendering:optimizeQuality; fill-rule:evenodd; clip-rule:evenodd"
viewBox="0 0 15799.77 12967.58"
 xmlns:xlink="http://www.w3.org/1999/xlink"
 xmlns:xodm="http://www.corel.com/coreldraw/odm/2003">
 <defs>
  <style type="text/css">
   <![CDATA[
    .fil0 {fill:#61DAFB}
   ]]>
  </style>
 </defs>
 <g id="Layer_x0020_1">
  <metadata id="CorelCorpID_0Corel-Layer"/>
  <g id="_1358796308112">
   <path class="fil0" d="M9015.17 838.92c-226.87,-973.76 -2369.97,-1116.51 -2369.97,929.39l0 1579.98 650.58 0 0 -1579.98c0,-1118.88 1208.22,-1083.68 1208.22,-139.41l0 1719.39 882.93 0c0,-643.57 -173.87,-2509.37 650.58,-2509.37 528.18,0 793.28,275.23 791.62,974.23 -1.31,552.17 44.84,993.43 44.84,1581.61l0 9526.34c1052.35,0 836.46,252.11 836.46,-1440.56 0,-1407.91 -61.19,-8962.53 51.27,-9568.01 207.4,-1116.73 1596.2,-999.25 1872.28,-116.01 216.36,692.19 121.12,6850.44 121.12,8011.1l0 2416.45c-0.65,877.18 -345.91,697.04 1905.27,697.04 107.07,0 139.41,-32.33 139.41,-139.41l0 -10688.09c0,-593.55 -73.13,-1636.74 -586.82,-1922.55 -777.21,-432.44 -2228.05,38.31 -2936.01,490.86 -213.42,136.43 -372.64,279.53 -566.51,409.36 -6.99,-313.33 -179.78,-657.96 -362.41,-799.35 -465.84,-360.67 -1285.95,-329.87 -1758.16,-20.05 -413.04,270.98 -340.14,429.99 -574.68,587.06z"/>
   <path class="fil0" d="M-0 3534.18l0 9433.4 464.7 0 0 -9433.4c0,-461.6 149.61,-1042.37 308.32,-1364.6 558.42,-1133.79 1643.41,-1386.33 1643.41,1085.78l0 9665.74 2648.78 0c726.83,0 1063.94,-263.12 1466.8,-577.88 106.64,-83.34 2120.93,-1699.14 1507.29,-1699.14 -1596.23,0 -975.88,-145.91 -2077.88,663.85 -123.74,90.91 -212.26,146.33 -292.08,265.55 205.32,4.57 887.61,121.23 1022.33,185.87 -238.8,325.94 -1639.29,232.36 -2137.61,232.36l0 -9805.16c0,-538.29 -53.17,-1165.29 -245.55,-1520.31 -601.89,-1110.64 -4308.5,-884.45 -4308.5,2867.95z"/>
  </g>
 </g>
</svg>
